<?xml version="1.0" encoding="UTF-8"?>
<svg width="67px" height="30px" viewBox="0 0 67 30" version="1.1" xmlns="http://www.w3.org/2000/svg" xmlns:xlink="http://www.w3.org/1999/xlink">
    <!-- Generator: Sketch 41.2 (35397) - http://www.bohemiancoding.com/sketch -->
    <title>001-car</title>
    <desc>Created with Sketch.</desc>
    <defs></defs>
    <g id="Welcome" stroke="none" stroke-width="1" fill="none" fill-rule="evenodd" opacity="0.532940765">
        <g id="Load-screen" transform="translate(-275.000000, -341.000000)" fill="#262B3A">
            <g id="Group-2" transform="translate(-98.000000, 38.000000)">
                <g id="001-car" transform="translate(406.249811, 317.974395) scale(-1, 1) translate(-406.249811, -317.974395) translate(372.749811, 302.974395)">
                    <g id="Layer_1">
                        <path d="M14.0018664,20.2539996 C13.0088409,20.2539996 12.20434,21.062807 12.20434,22.0596729 C12.20434,23.0564087 13.0088409,23.8653462 14.0018664,23.8653462 C14.9963171,23.8653462 15.8008181,23.0565388 15.8008181,22.0596729 C15.8008181,21.062807 14.9963171,20.2539996 14.0018664,20.2539996 Z" id="Shape"></path>
                        <path d="M51.9717448,20.2539996 C50.977294,20.2539996 50.1727931,21.062807 50.1727931,22.0596729 C50.1727931,23.0564087 50.977294,23.8653462 51.9717448,23.8653462 C52.9647702,23.8653462 53.7692712,23.0565388 53.7692712,22.0596729 C53.7692712,21.062807 52.9647702,20.2539996 51.9717448,20.2539996 Z" id="Shape"></path>
                        <path d="M61.8412311,6.41479613 L49.2014059,1.33019493 C47.097187,0.483151562 44.8805012,0.0542326249 42.6122465,0.0542326249 L34.8644711,0.0542326249 C32.0888198,0.0542326249 29.3130389,0.721410959 26.8385086,1.98514817 L15.3856754,7.83095693 L7.16989265,9.03330853 C5.17839977,9.32476012 3.35768032,10.3269582 2.04047039,11.8561362 C0.72442659,13.3841436 0,15.3382088 0,17.3575613 L0,22.2243216 C0,22.9760352 0.607813474,23.5859896 1.35659925,23.5859896 L7.17663029,23.5859896 C7.46829265,24.9109824 8.13713366,26.122828 9.12471718,27.0896513 C10.4379104,28.3710759 12.1703926,29.0777907 14.0031621,29.0777907 C15.8346359,29.0777907 17.5671181,28.3710759 18.8803113,27.0896513 C19.8693201,26.1215274 20.5394568,24.9068207 20.8298235,23.5859896 L45.1449538,23.5859896 C45.4366162,24.9109824 46.1054572,26.122828 47.094466,27.0883508 C48.4063635,28.3710759 50.1387162,29.0777907 51.9701899,29.0777907 C53.8029594,29.0777907 55.5354416,28.3710759 56.8473392,27.0896513 C57.8363479,26.122828 58.505189,24.9108523 58.7968513,23.5859896 L64.9831771,23.5859896 C65.7320925,23.5859896 66.3397764,22.9759051 66.3397764,22.2243216 L66.3397764,13.0899609 C66.3399059,10.1349981 64.5736059,7.5151852 61.8412311,6.41479613 Z M48.1920546,3.85753929 L57.949074,7.78335707 L50.5865105,7.78335707 L47.3454433,3.54709978 C47.6290723,3.64242955 47.9112761,3.74595274 48.1920546,3.85753929 Z M36.1369793,2.7776988 L42.6122465,2.7776988 C42.8592072,2.7776988 43.1047426,2.78316108 43.3488527,2.79538618 L47.1650817,7.78335707 L36.1369793,7.78335707 L36.1369793,2.7776988 Z M28.0676109,4.41313108 C29.7349193,3.56205602 31.5623764,3.0310445 33.4236513,2.84987892 L33.4236513,7.78335707 L21.4648467,7.78335707 L28.0676109,4.41313108 Z M7.35167954,11.7649681 C6.79413927,13.6590783 5.12955183,15.0807014 3.11357019,15.2740921 C3.82024568,13.4944296 5.40346308,12.1258687 7.35167954,11.7649681 Z M14.0018664,26.3544546 C11.6386368,26.3544546 9.72307203,24.4317325 9.72307203,22.0596729 C9.72307203,19.6876133 11.6386368,17.7648912 14.0018664,17.7648912 C16.365096,17.7648912 18.2806608,19.6876133 18.2806608,22.0596729 C18.2807903,24.4317325 16.3652255,26.3544546 14.0018664,26.3544546 Z M51.9717448,26.3544546 C49.6085152,26.3544546 47.6915251,24.4317325 47.6915251,22.0596729 C47.6915251,19.6876133 49.6085152,17.7648912 51.9717448,17.7648912 C54.3349744,17.7648912 56.2505391,19.6876133 56.2505391,22.0596729 C56.2505391,24.4317325 54.3349744,26.3544546 51.9717448,26.3544546 Z M63.6265779,20.8626535 L58.8593041,20.8626535 C58.29088,17.5618765 55.4202538,15.041295 51.9703195,15.041295 C48.521681,15.041295 45.6510548,17.5618765 45.0826306,20.8626535 L20.8922763,20.8626535 C20.3238521,17.5618765 17.4518006,15.041295 14.0032917,15.041295 C10.5533574,15.041295 7.68273122,17.5618765 7.11430706,20.8626535 L2.71332807,20.8626535 L2.71332807,18.0194074 C6.5567668,17.9840326 9.72851398,15.0808314 10.2019632,11.3415115 L15.9066769,10.5068233 L49.9177991,10.5068233 L49.9190948,10.5068233 L49.9203905,10.5068233 L58.505189,10.5068233 L58.505189,12.2797229 C58.505189,14.7716925 60.5251873,16.7992383 63.0065848,16.7992383 L63.6265779,16.7992383 L63.6265779,20.8626535 Z M63.6265779,14.0759022 L63.0065848,14.0759022 C62.0215927,14.0759022 61.218517,13.2698259 61.218517,12.2798529 L61.218517,10.5069533 L62.8098973,10.5069533 C63.3294736,11.2450112 63.6265779,12.1382238 63.6265779,13.0900909 L63.6265779,14.0759022 L63.6265779,14.0759022 Z" id="Shape"></path>
                        <path d="M37.6011218,14.3232654 L28.6029946,14.3232654 C27.8536906,14.3232654 27.2463954,14.9329598 27.2463954,15.6849335 C27.2463954,16.4369072 27.8538202,17.0466015 28.6029946,17.0466015 L37.6011218,17.0466015 C38.3502963,17.0466015 38.957721,16.4369072 38.957721,15.6849335 C38.957721,14.9329598 38.3502963,14.3232654 37.6011218,14.3232654 Z" id="Shape"></path>
                        <path d="M14.0018664,20.2539996 C13.0088409,20.2539996 12.20434,21.062807 12.20434,22.0596729 C12.20434,23.0564087 13.0088409,23.8653462 14.0018664,23.8653462 C14.9963171,23.8653462 15.8008181,23.0565388 15.8008181,22.0596729 C15.8008181,21.062807 14.9963171,20.2539996 14.0018664,20.2539996 Z" id="Shape"></path>
                        <path d="M51.9717448,20.2539996 C50.977294,20.2539996 50.1727931,21.062807 50.1727931,22.0596729 C50.1727931,23.0564087 50.977294,23.8653462 51.9717448,23.8653462 C52.9647702,23.8653462 53.7692712,23.0565388 53.7692712,22.0596729 C53.7692712,21.062807 52.9647702,20.2539996 51.9717448,20.2539996 Z" id="Shape"></path>
                        <path d="M14.0018664,20.2539996 C13.0088409,20.2539996 12.20434,21.062807 12.20434,22.0596729 C12.20434,23.0564087 13.0088409,23.8653462 14.0018664,23.8653462 C14.9963171,23.8653462 15.8008181,23.0565388 15.8008181,22.0596729 C15.8008181,21.062807 14.9963171,20.2539996 14.0018664,20.2539996 Z" id="Shape"></path>
                        <path d="M51.9717448,20.2539996 C50.977294,20.2539996 50.1727931,21.062807 50.1727931,22.0596729 C50.1727931,23.0564087 50.977294,23.8653462 51.9717448,23.8653462 C52.9647702,23.8653462 53.7692712,23.0565388 53.7692712,22.0596729 C53.7692712,21.062807 52.9647702,20.2539996 51.9717448,20.2539996 Z" id="Shape"></path>
                    </g>
                </g>
            </g>
        </g>
    </g>
</svg>