<?xml version="1.0" encoding="UTF-8"?>
<svg width="105px" height="46px" viewBox="0 0 105 46" version="1.1" xmlns="http://www.w3.org/2000/svg" xmlns:xlink="http://www.w3.org/1999/xlink">
    <!-- Generator: Sketch 41.2 (35397) - http://www.bohemiancoding.com/sketch -->
    <title>001-car</title>
    <desc>Created with Sketch.</desc>
    <defs>
        <linearGradient x1="42.2003532%" y1="38.2688694%" x2="2.83518315%" y2="88.5417066%" id="linearGradient-1">
            <stop stop-color="#FF7200" offset="0%"></stop>
            <stop stop-color="#FF3E00" offset="100%"></stop>
        </linearGradient>
    </defs>
    <g id="Welcome" stroke="none" stroke-width="1" fill="none" fill-rule="evenodd">
        <g id="Load-screen" transform="translate(-136.000000, -195.000000)">
            <g id="TITLE-BAR">
                <g id="001-car" transform="translate(188.500000, 218.000000) scale(-1, 1) translate(-188.500000, -218.000000) translate(136.000000, 195.000000)">
                    <g id="Layer_1">
                        <g id="Group" fill="url(#linearGradient-1)">
                            <path d="M22.1615625,31.9812946 C20.5898438,31.9812946 19.3165137,33.2584107 19.3165137,34.8324732 C19.3165137,36.4063304 20.5898438,37.6836518 22.1615625,37.6836518 C23.7355371,37.6836518 25.0088672,36.4065357 25.0088672,34.8324732 C25.0088672,33.2584107 23.7355371,31.9812946 22.1615625,31.9812946 Z" id="Shape"></path>
                            <path d="M97.8796875,10.1290357 L77.8739062,2.10039286 C74.5434375,0.762901786 71.0349609,0.0856339286 67.4448633,0.0856339286 L55.1820117,0.0856339286 C50.7888281,0.0856339286 46.3954395,1.13911607 42.4788574,3.13457143 L24.3517969,12.3651696 L11.3482031,14.2636964 C8.19615234,14.7239018 5.31439453,16.3063839 3.22957031,18.7209732 C1.1465918,21.1337143 0,24.2192054 0,27.4077857 L0,35.0924554 C0,36.2794196 0.962021484,37.2425446 2.14716797,37.2425446 L11.3588672,37.2425446 C11.820498,39.3347232 12.8791113,41.2482411 14.4422168,42.7748661 C16.5206836,44.79825 19.2627832,45.9141607 22.1636133,45.9141607 C25.0623926,45.9141607 27.8044922,44.79825 29.882959,42.7748661 C31.4483203,41.2461875 32.5089844,39.3281518 32.9685645,37.2425446 L71.4535254,37.2425446 C71.9151562,39.3347232 72.9737695,41.2482411 74.5391309,42.7728125 C76.6155469,44.79825 79.3574414,45.9141607 82.2562207,45.9141607 C85.1570508,45.9141607 87.8991504,44.79825 89.9755664,42.7748661 C91.5409277,41.2482411 92.599541,39.3345179 93.0611719,37.2425446 L102.852627,37.2425446 C104.037979,37.2425446 104.999795,36.2792143 104.999795,35.0924554 L104.999795,20.6691964 C105,16.0032768 102.204375,11.8665625 97.8796875,10.1290357 Z M76.2763477,6.09109821 L91.7193457,12.2900089 L80.0661914,12.2900089 L74.9363672,5.60091071 C75.3852832,5.7514375 75.8319434,5.91490179 76.2763477,6.09109821 Z M57.196084,4.38601786 L67.4448633,4.38601786 C67.8357422,4.38601786 68.2243652,4.39464286 68.6107324,4.41394643 L74.6508984,12.2900089 L57.196084,12.2900089 L57.196084,4.38601786 Z M44.4242285,6.96838393 C47.0631738,5.62452679 49.9555957,4.78605357 52.901543,4.49999107 L52.901543,12.2900089 L33.9736523,12.2900089 L44.4242285,6.96838393 Z M11.6359277,18.5770179 C10.7534766,21.5678393 8.11883789,23.8125982 4.92802734,24.1179643 C6.04652344,21.3078571 8.55237305,19.1468839 11.6359277,18.5770179 Z M22.1615625,41.6139821 C18.4211426,41.6139821 15.3892676,38.5779821 15.3892676,34.8324732 C15.3892676,31.0869643 18.4211426,28.0509643 22.1615625,28.0509643 C25.9019824,28.0509643 28.9338574,31.0869643 28.9338574,34.8324732 C28.9340625,38.5779821 25.9021875,41.6139821 22.1615625,41.6139821 Z M82.2586816,41.6139821 C78.5182617,41.6139821 75.4841309,38.5779821 75.4841309,34.8324732 C75.4841309,31.0869643 78.5182617,28.0509643 82.2586816,28.0509643 C85.9991016,28.0509643 89.0309766,31.0869643 89.0309766,34.8324732 C89.0309766,38.5779821 85.9991016,41.6139821 82.2586816,41.6139821 Z M100.705459,32.9423661 L93.1600195,32.9423661 C92.2603418,27.7304018 87.7168359,23.750375 82.2564258,23.750375 C76.7980664,23.750375 72.2545605,27.7304018 71.3548828,32.9423661 L33.0674121,32.9423661 C32.1677344,27.7304018 27.6219727,23.750375 22.1638184,23.750375 C16.7034082,23.750375 12.1599023,27.7304018 11.2602246,32.9423661 L4.29454102,32.9423661 L4.29454102,28.4528482 C10.3777734,28.3969911 15.3978809,23.8128036 16.1472363,17.908375 L25.176416,16.5903929 L79.0077832,16.5903929 L79.009834,16.5903929 L79.0118848,16.5903929 L92.599541,16.5903929 L92.599541,19.3898214 C92.599541,23.3246696 95.796709,26.5261875 99.7241602,26.5261875 L100.705459,26.5261875 L100.705459,32.9423661 Z M100.705459,22.2260089 L99.7241602,22.2260089 C98.1651563,22.2260089 96.894082,20.9532054 96.894082,19.3900268 L96.894082,16.5905982 L99.4128516,16.5905982 C100.235215,17.756 100.705459,19.1663929 100.705459,20.6694018 L100.705459,22.2260089 L100.705459,22.2260089 Z" id="Shape"></path>
                            <path d="M82.2586816,31.9812946 C80.684707,31.9812946 79.411377,33.2584107 79.411377,34.8324732 C79.411377,36.4063304 80.684707,37.6836518 82.2586816,37.6836518 C83.8304004,37.6836518 85.1037305,36.4065357 85.1037305,34.8324732 C85.1037305,33.2584107 83.8304004,31.9812946 82.2586816,31.9812946 Z" id="Shape"></path>
                        </g>
                        <path d="M59.5134668,22.6165982 L45.2716113,22.6165982 C44.0856445,22.6165982 43.1244434,23.5793125 43.1244434,24.7666875 C43.1244434,25.9540625 44.0858496,26.9167768 45.2716113,26.9167768 L59.5134668,26.9167768 C60.6992285,26.9167768 61.6606348,25.9540625 61.6606348,24.7666875 C61.6606348,23.5793125 60.6992285,22.6165982 59.5134668,22.6165982 Z" id="Shape" fill="url(#linearGradient-1)"></path>
                        <g id="SVGCleanerId_0" transform="translate(19.277344, 31.830357)" fill="#000000">
                            <path d="M2.88421875,0.1509375 C1.3125,0.1509375 0.0391699219,1.42805357 0.0391699219,3.00211607 C0.0391699219,4.57597321 1.3125,5.85329464 2.88421875,5.85329464 C4.45819336,5.85329464 5.73152344,4.57617857 5.73152344,3.00211607 C5.73152344,1.42805357 4.45819336,0.1509375 2.88421875,0.1509375 Z" id="Shape"></path>
                        </g>
                        <g id="SVGCleanerId_1" transform="translate(79.365234, 31.830357)" fill="#000000">
                            <path d="M2.89344727,0.1509375 C1.31947266,0.1509375 0.0461425781,1.42805357 0.0461425781,3.00211607 C0.0461425781,4.57597321 1.31947266,5.85329464 2.89344727,5.85329464 C4.46516602,5.85329464 5.73849609,4.57617857 5.73849609,3.00211607 C5.73849609,1.42805357 4.46516602,0.1509375 2.89344727,0.1509375 Z" id="Shape"></path>
                        </g>
                        <path d="M22.1615625,31.9812946 C20.5898438,31.9812946 19.3165137,33.2584107 19.3165137,34.8324732 C19.3165137,36.4063304 20.5898438,37.6836518 22.1615625,37.6836518 C23.7355371,37.6836518 25.0088672,36.4065357 25.0088672,34.8324732 C25.0088672,33.2584107 23.7355371,31.9812946 22.1615625,31.9812946 Z" id="Shape" fill="url(#linearGradient-1)"></path>
                        <path d="M82.2586816,31.9812946 C80.684707,31.9812946 79.411377,33.2584107 79.411377,34.8324732 C79.411377,36.4063304 80.684707,37.6836518 82.2586816,37.6836518 C83.8304004,37.6836518 85.1037305,36.4065357 85.1037305,34.8324732 C85.1037305,33.2584107 83.8304004,31.9812946 82.2586816,31.9812946 Z" id="Shape" fill="url(#linearGradient-1)"></path>
                    </g>
                </g>
            </g>
        </g>
    </g>
</svg>