<?xml version="1.0" encoding="UTF-8"?>
<svg width="21px" height="16px" viewBox="0 0 21 16" version="1.1" xmlns="http://www.w3.org/2000/svg" xmlns:xlink="http://www.w3.org/1999/xlink">
    <!-- Generator: Sketch 41.2 (35397) - http://www.bohemiancoding.com/sketch -->
    <title>email</title>
    <desc>Created with Sketch.</desc>
    <defs></defs>
    <g id="Welcome" stroke="none" stroke-width="1" fill="none" fill-rule="evenodd">
        <g id="Sign_up" transform="translate(-34.000000, -210.000000)">
            <g id="Group" transform="translate(32.000000, 206.000000)">
                <g id="Email_icon">
                    <g id="email" transform="translate(0.000000, 0.447300)">
                        <path d="M20.2150783,8.09006556 L12.7794822,11.778093 C12.667537,11.8333922 12.5449304,11.8610418 12.4215622,11.8610418 C12.3004787,11.8610418 12.1793951,11.8341011 12.068973,11.7802199 L4.78949086,8.23752995 C4.4163403,8.05603532 4.27241079,7.62782144 4.46736292,7.28042939 C4.66231506,6.93445526 5.12228024,6.80117015 5.49466928,6.98124685 L12.4185161,10.3502408 L19.5,6.83803624 C19.8701044,6.65370577 20.3323542,6.78557295 20.5295909,7.13083812 C20.7275892,7.47610328 20.5867058,7.90573509 20.2150783,8.09006556 M20.8996954,3.55269996 L4.09954308,3.55269996 C2.94429939,3.55269996 2,4.43252351 2,5.50802095 L2,17.238529 C2,18.3140264 2.94429939,19.193141 4.09954308,19.193141 L20.8996954,19.193141 C22.0549391,19.193141 23,18.3140264 23,17.238529 L23,5.50802095 C23,4.43252351 22.0549391,3.55269996 20.8996954,3.55269996" id="Fill-1" fill="#FFFFFF"></path>
                        <rect id="bounds" x="0" y="0" width="25.1104566" height="23.5917741"></rect>
                    </g>
                </g>
            </g>
        </g>
    </g>
</svg>