<?xml version="1.0" encoding="UTF-8"?>
<svg width="15px" height="15px" viewBox="0 0 15 15" version="1.1" xmlns="http://www.w3.org/2000/svg" xmlns:xlink="http://www.w3.org/1999/xlink">
    <!-- Generator: Sketch 41.2 (35397) - http://www.bohemiancoding.com/sketch -->
    <title>info</title>
    <desc>Created with Sketch.</desc>
    <defs></defs>
    <g id="Welcome" stroke="none" stroke-width="1" fill="none" fill-rule="evenodd">
        <g id="Sign_up" transform="translate(-324.000000, -274.000000)" fill="#FFFFFF">
            <g id="info" transform="translate(324.000000, 274.000000)">
                <g id="Capa_1">
                    <g id="Group">
                        <path d="M7.5,0 C3.36461538,0 0,3.36438462 0,7.5 C0,11.6356154 3.36461538,15 7.5,15 C11.6353846,15 15,11.6356154 15,7.5 C15,3.36438462 11.6353846,0 7.5,0 L7.5,0 Z M7.5,14.0769231 C3.87346154,14.0769231 0.923076923,11.1265385 0.923076923,7.5 C0.923076923,3.87346154 3.87346154,0.923076923 7.5,0.923076923 C11.1265385,0.923076923 14.0769231,3.87346154 14.0769231,7.5 C14.0769231,11.1265385 11.1265385,14.0769231 7.5,14.0769231 L7.5,14.0769231 Z" id="Shape"></path>
                        <ellipse id="Oval" cx="7.61953846" cy="4.50946154" rx="0.771923077" ry="0.771923077"></ellipse>
                        <path d="M7.41623077,6.54046154 C7.16146154,6.54046154 6.95469231,6.74723077 6.95469231,7.002 L6.95469231,10.9250769 C6.95469231,11.1798462 7.16146154,11.3866154 7.41623077,11.3866154 C7.671,11.3866154 7.87776923,11.1798462 7.87776923,10.9250769 L7.87776923,7.002 C7.87776923,6.747 7.671,6.54046154 7.41623077,6.54046154 L7.41623077,6.54046154 Z" id="Shape"></path>
                    </g>
                </g>
            </g>
        </g>
    </g>
</svg>